<?xml version="1.0" encoding="UTF-8" standalone="no"?>
<!-- Created with Inkscape (http://www.inkscape.org/) -->

<svg
   xmlns:dc="http://purl.org/dc/elements/1.1/"
   xmlns:cc="http://creativecommons.org/ns#"
   xmlns:rdf="http://www.w3.org/1999/02/22-rdf-syntax-ns#"
   xmlns:svg="http://www.w3.org/2000/svg"
   xmlns="http://www.w3.org/2000/svg"
   xmlns:sodipodi="http://sodipodi.sourceforge.net/DTD/sodipodi-0.dtd"
   xmlns:inkscape="http://www.inkscape.org/namespaces/inkscape"
   width="293.80972"
   height="209.43645"
   id="svg2"
   version="1.1"
   inkscape:version="0.48.4 r9939"
   sodipodi:docname="desenho.svg">
  <defs
     id="defs4" />
  <sodipodi:namedview
     id="base"
     pagecolor="#ffffff"
     bordercolor="#666666"
     borderopacity="0.0"
     inkscape:pageopacity="0.0"
     inkscape:pageshadow="2"
     inkscape:zoom="1.28"
     inkscape:cx="23.340502"
     inkscape:cy="67.147572"
     inkscape:document-units="px"
     inkscape:current-layer="layer1"
     showgrid="false"
     inkscape:window-width="1301"
     inkscape:window-height="744"
     inkscape:window-x="65"
     inkscape:window-y="24"
     inkscape:window-maximized="1"
     fit-margin-top="0"
     fit-margin-left="0"
     fit-margin-right="0"
     fit-margin-bottom="0"
     showguides="true"
     inkscape:guide-bbox="true">
    <sodipodi:guide
       orientation="1,0"
       position="146.09375,180.49979"
       id="guide2992" />
  </sodipodi:namedview>
  <metadata
     id="metadata7">
    <rdf:RDF>
      <cc:Work
         rdf:about="">
        <dc:format>image/svg+xml</dc:format>
        <dc:type
           rdf:resource="http://purl.org/dc/dcmitype/StillImage" />
        <dc:title />
      </cc:Work>
    </rdf:RDF>
  </metadata>
  <g
     inkscape:label="Camada 1"
     inkscape:groupmode="layer"
     id="layer1"
     transform="translate(-53.515625,34.807461)">
    <path
       style="fill:#00b5ad;fill-opacity:1;stroke:#ffffff;stroke-width:0;stroke-miterlimit:4;stroke-opacity:1;stroke-dasharray:none"
       d="m 203.01466,142.20339 c -5.3417,-9.13227 -14.591,-21.70012 -25.512,-34.66548 -3.1877,-3.78442 -4.7497,-6.19454 -4.3978,-6.78572 0.974,-1.63646 13.4616,-17.18115 18.8115,-23.4168 39.1439,-45.62474 83.4527,-81.625221 126.1138,-102.466251 9.1083,-4.44965 21.3959,-9.6766 22.7478,-9.6766 0.3765,0 -2.1771,1.79317 -5.6745,3.98482 -22.8139,14.29619 -41.7278,34.08491 -62.0727,64.943751 -11.2832,17.11431 -15.7974,24.89523 -46.413,80 -3.5685,6.42294 -15.2001,24.91326 -18.1149,28.79656 l -2.8497,3.79657 -2.6385,-4.51085 z"
       id="path3771"
       inkscape:connector-curvature="0"
       inkscape:export-filename="/home/filipe/Área de Trabalho/path3004.png"
       inkscape:export-xdpi="540"
       inkscape:export-ydpi="540" />
    <path
       style="fill:#00fff4;fill-opacity:1;stroke:#00fff4;stroke-width:1.80799997;stroke-linecap:butt;stroke-linejoin:miter;stroke-miterlimit:4;stroke-opacity:1;stroke-dasharray:none"
       d="m 168.32246,133.33077 c -55.1352,-8.17659 -69.1967,-45.86904 -39.2258,-45.97693 22.6412,1.48322 26.3539,30.35709 39.2258,45.97693 z"
       id="path2987"
       inkscape:connector-curvature="0"
       sodipodi:nodetypes="ccc"
       inkscape:export-filename="/home/filipe/Área de Trabalho/path3004.png"
       inkscape:export-xdpi="540"
       inkscape:export-ydpi="540" />
    <path
       style="fill:#2a2a2a;fill-opacity:1;stroke:#d8d8d8;stroke-width:0;stroke-linecap:round;stroke-miterlimit:4;stroke-opacity:1;stroke-dasharray:none"
       d="m 154.95431,174.42326 c -9.4323,-1.48677 -18.2102,-6.08722 -25.6878,-13.46287 -6.0309,-5.9486 -10.5546,-12.58584 -15.6942,-23.02665 -5.1453,-10.45229 -7.6535,-17.01148 -16.9236,-44.25646 C 84.69341,58.54003 79.31101,46.36931 70.43231,34.39631 66.43341,29.0038 62.35711,25.1223 56.38281,21.01835 l -2.8571,-1.9627 2.5,0.50792 c 8.4148,1.70961 27.8162,10.02265 40.3571,17.2921 20.9064,12.11851 41.3691,28.32244 62.8955,49.80532 13.8251,13.79723 23.7529,25.12033 33.8306,38.58512 7.4621,9.97022 15.7739,22.82838 15.7739,24.40187 0,1.62288 -15.1148,16.15958 -19.4526,18.70856 -8.6825,5.10209 -12.0959,6.03935 -22.6902,6.2305 -5.3036,0.0957 -10.6072,0.022 -11.7857,-0.16378 l 0,0 z m 13.2143,-40.85569 c 0,-0.33392 -0.9749,-1.9529 -2.1664,-3.59773 -1.1915,-1.64485 -5.002,-8.39765 -8.4677,-15.00622 -7.3082,-13.93568 -9.4487,-17.22365 -13.8605,-21.29026 -4.7381,-4.3674 -8.5972,-6.09897 -14.434,-6.47647 -15.9768,-1.03332 -21.6962,9.63819 -12.1302,22.63273 7.3766,10.02035 24.177,18.84134 43.5614,22.87173 7.9163,1.64594 7.4974,1.59754 7.4974,0.86622 z"
       id="path3765"
       inkscape:connector-curvature="0"
       inkscape:export-filename="/home/filipe/Área de Trabalho/path3004.png"
       inkscape:export-xdpi="540"
       inkscape:export-ydpi="540" />
    <path
       style="fill:#171717;fill-opacity:1;stroke:#ffffff;stroke-width:0;stroke-miterlimit:4;stroke-opacity:1;stroke-dasharray:none"
       d="m 192.57956,164.31074 c 8.9312,-10.19242 14.4976,-18.08026 24.5618,-34.80496 5.6524,-9.39319 6.4074,-10.29669 16.3671,-19.58536 35.6542,-33.25202 67.2835,-51.14595 103.2936,-58.43717 11.4683,-2.32207 13.484,-2.1959 6.4335,0.40268 -7.4414,2.74261 -19.8664,9.09784 -27.4684,14.04974 -13.0365,8.49182 -24.6241,17.99266 -46.7438,38.32582 -33.5086,30.80225 -44.4315,40.29223 -57.4021,49.87174 -7.0436,5.20213 -20.3439,13.99182 -22.2637,14.71331 -0.6171,0.23192 0.8328,-1.80919 3.222,-4.5358 z"
       id="path3767"
       inkscape:connector-curvature="0"
       inkscape:export-filename="/home/filipe/Área de Trabalho/path3004.png"
       inkscape:export-xdpi="540"
       inkscape:export-ydpi="540" />
    <path
       style="fill:#121200;fill-opacity:0;stroke:none"
       d="m 209.35841,144.89089 c -5.3417,-9.13227 -14.591,-21.70012 -25.512,-34.66548 -3.1877,-3.78442 -4.7497,-6.19454 -4.3978,-6.78572 0.974,-1.63646 13.4616,-17.18115 18.8115,-23.4168 39.1439,-45.62474 83.4527,-81.625221 126.1138,-102.466251 9.1083,-4.44965 21.3959,-9.6766 22.7478,-9.6766 0.3765,0 -2.1771,1.79317 -5.6745,3.98482 -22.8139,14.29619 -41.7278,34.08491 -62.0727,64.943751 -11.2832,17.11431 -15.7974,24.89523 -46.413,80 -3.5685,6.42294 -15.2001,24.91326 -18.1149,28.79656 l -2.8497,3.79657 -2.6385,-4.51085 z"
       id="path3769"
       inkscape:connector-curvature="0"
       inkscape:export-filename="/home/filipe/Área de Trabalho/path3004.png"
       inkscape:export-xdpi="540"
       inkscape:export-ydpi="540" />
    <path
       style="fill:#171717;fill-opacity:1;stroke:none"
       d="M 110.83984,45.85046 C 110.55583,45.93416 99.974307,36.46118 66.796875,29.93249 62.120953,24.5978 59.100002,22.96442 53.515625,18.99499 65.314734,19.94856 96.23529,35.89074 110.83984,45.85046 z"
       id="path3004"
       inkscape:connector-curvature="0"
       sodipodi:nodetypes="cccc"
       inkscape:export-xdpi="540"
       inkscape:export-ydpi="540" />
  </g>
</svg>
